<svg width="167" height="241" viewBox="0 0 167 241" fill="none" xmlns="http://www.w3.org/2000/svg">
<path d="M98.7133 192.246V39.8412H92.5591C87.8819 78.2423 67.2038 95.0428 27.8169 95.0428H0V40.0811H25.3553C62.2804 40.0811 81.9739 25.4407 81.9739 0H166.409V192.246H98.7133V192.246Z" fill="#FB4073"/>
<path d="M0.606445 239.636V223.163H8.69479L7.16699 228.42H7.93089C9.86311 224.083 12.1997 222.418 16.6034 222.418C21.4115 222.418 23.838 224.696 23.838 228.902V232.188H15.6148V230.523C15.6148 228.508 14.7161 227.456 12.4693 227.456C10.0878 227.456 8.87453 228.902 8.87453 231.312V239.636H0.606445Z" fill="white"/>
<path d="M52.1011 229.736V239.638H44.2824L45.5855 235.169H44.8665C43.6083 238.718 40.4629 240.382 35.0706 240.382C32.06 240.382 30.0379 239.769 28.9145 238.63C28.1057 237.841 27.7013 236.79 27.7013 235.476C27.7013 234.205 28.1057 233.197 28.9595 232.365C30.1278 231.226 32.1049 230.525 34.801 230.35L43.9678 229.868V229.298C43.9678 227.546 42.5748 226.67 39.8787 226.67C35.7896 226.67 35.6548 228.685 35.6099 229.079V229.123H27.3867V229.123C27.4766 228.159 27.881 222.42 39.9686 222.42C48.1917 222.376 52.1011 224.786 52.1011 229.736ZM43.8779 232.891L38.3509 233.241C37.4522 233.329 36.7782 233.592 36.3738 233.942C36.1042 234.205 36.0143 234.556 36.0143 234.95C36.0143 235.344 36.1042 235.695 36.3738 235.958C36.7333 236.308 37.4971 236.527 38.6655 236.527C42.9343 236.527 43.8779 234.03 43.8779 232.891Z" fill="white"/>
<path d="M56.7744 239.637V233.066L69.3113 228.378V227.677H56.7744V223.121H79.1522V229.692L66.5254 234.38V235.081H79.1971V239.637H56.7744Z" fill="white"/>
<path d="M83.8705 235.826C82.9718 234.555 82.5225 233.066 82.5225 231.401C82.5225 229.692 83.0167 228.203 83.8705 226.976C85.8926 224.085 90.2963 222.42 96.3176 222.42C102.339 222.42 106.743 224.128 108.765 226.976C109.663 228.247 110.158 229.736 110.158 231.401C110.158 233.11 109.663 234.599 108.765 235.826C106.743 238.717 102.339 240.382 96.3176 240.382C90.2963 240.382 85.8926 238.717 83.8705 235.826ZM101.126 233.767C101.575 233.11 101.8 232.321 101.8 231.401C101.8 230.481 101.575 229.692 101.126 229.035C100.272 227.852 98.6542 227.151 96.3176 227.151C94.0259 227.151 92.3633 227.852 91.5095 229.035C91.0602 229.692 90.8355 230.481 90.8355 231.401C90.8355 232.321 91.0602 233.11 91.5095 233.767C92.3633 234.95 94.0259 235.651 96.3176 235.651C98.6542 235.651 100.272 234.95 101.126 233.767Z" fill="white"/>
<path d="M119.187 239.638L111.413 223.165H119.996L124.894 234.599L125.253 236.615H126.017L126.377 234.599L131.319 223.165H139.902L132.038 239.638H119.187Z" fill="white"/>
<path d="M167 234.468C166.011 238.06 161.248 240.382 154.283 240.382C148.666 240.382 144.353 238.805 142.375 236.045C141.477 234.775 141.027 233.197 141.027 231.401C141.027 229.561 141.522 227.984 142.42 226.713C144.442 223.909 148.532 222.332 154.148 222.332C162.282 222.332 167 225.618 167 231.401V232.672H148.936C149.071 233.416 149.295 234.03 149.655 234.512C150.464 235.651 152.036 236.22 154.283 236.22C156.71 236.22 158.148 235.563 158.957 234.38H167V234.468ZM149.52 228.159C149.25 228.553 149.026 229.035 148.891 229.561H159.091C158.912 227.633 157.339 226.407 154.103 226.407C151.947 226.407 150.329 226.976 149.52 228.159Z" fill="white"/>
</svg>
