<svg width="228" height="43" viewBox="0 0 228 43" fill="none" xmlns="http://www.w3.org/2000/svg">
<path d="M43.0532 19.7283V0.948913H52.0434L50.3452 6.94234H51.1943C53.3419 1.99776 55.9391 0.0998535 60.8337 0.0998535C66.1779 0.0998535 68.8749 2.697 68.8749 7.49174V11.2376H59.7349V9.33972C59.7349 7.04224 58.736 5.84355 56.2388 5.84355C53.5917 5.84355 52.2431 7.49174 52.2431 10.2387V19.7283H43.0532Z" fill="#0627B0"/>
<path d="M100.291 8.44088V19.7285H91.6002L93.0486 14.6341H92.2495C90.851 18.6796 87.3549 20.5776 81.3614 20.5776C78.0151 20.5776 75.7676 19.8783 74.5189 18.5798C73.6199 17.6807 73.1704 16.4821 73.1704 14.9837C73.1704 13.5353 73.6199 12.3865 74.5689 11.4376C75.8675 10.139 78.065 9.33989 81.0618 9.14011L91.2506 8.59072V7.94142C91.2506 5.94361 89.7023 4.94471 86.7056 4.94471C82.1605 4.94471 82.0107 7.24219 81.9608 7.6917V7.74165H72.8208C72.9207 6.64285 73.3702 0.100034 86.8055 0.100034C95.9454 0.0500889 100.291 2.79707 100.291 8.44088ZM91.1507 12.0369L85.0074 12.4365C84.0085 12.5364 83.2594 12.8361 82.8098 13.2356C82.5102 13.5353 82.4103 13.9348 82.4103 14.3844C82.4103 14.8339 82.5102 15.2334 82.8098 15.5331C83.2094 15.9327 84.0585 16.1824 85.357 16.1824C90.1018 16.1824 91.1507 13.3355 91.1507 12.0369Z" fill="#0627B0"/>
<path d="M105.485 19.7283V12.2365L119.42 6.89235V6.09324H105.485V0.898926H130.358V8.39071L116.323 13.7349V14.534H130.408V19.7283H105.485Z" fill="#0627B0"/>
<path d="M135.601 15.3831C134.602 13.9347 134.103 12.2365 134.103 10.3386C134.103 8.39076 134.652 6.69262 135.601 5.29415C137.849 1.99777 142.744 0.0998535 149.436 0.0998535C156.129 0.0998535 161.024 2.04771 163.271 5.29415C164.27 6.74256 164.819 8.44071 164.819 10.3386C164.819 12.2865 164.27 13.9846 163.271 15.3831C161.024 18.6795 156.129 20.5774 149.436 20.5774C142.744 20.5774 137.849 18.6795 135.601 15.3831ZM154.78 13.0357C155.28 12.2865 155.53 11.3875 155.53 10.3386C155.53 9.28977 155.28 8.39075 154.78 7.64157C153.831 6.29305 152.033 5.49393 149.436 5.49393C146.889 5.49393 145.041 6.29305 144.092 7.64157C143.593 8.39075 143.343 9.28977 143.343 10.3386C143.343 11.3875 143.593 12.2865 144.092 13.0357C145.041 14.3842 146.889 15.1833 149.436 15.1833C152.033 15.1833 153.831 14.3842 154.78 13.0357Z" fill="#0627B0"/>
<path d="M174.859 19.7284L166.218 0.948975H175.758L181.202 13.9847L181.601 16.2822H182.45L182.85 13.9847L188.344 0.948975H197.884L189.143 19.7284H174.859Z" fill="#0627B0"/>
<path d="M228 13.8348C226.901 17.9303 221.607 20.5774 213.866 20.5774C207.623 20.5774 202.828 18.7794 200.63 15.6328C199.631 14.1844 199.132 12.3864 199.132 10.3387C199.132 8.24097 199.681 6.44293 200.68 4.99452C202.928 1.79803 207.473 0 213.716 0C222.756 0 228 3.7459 228 10.3387V11.7871H207.922C208.072 12.6361 208.322 13.3354 208.721 13.8848C209.62 15.1833 211.368 15.8326 213.866 15.8326C216.563 15.8326 218.161 15.0835 219.06 13.7349H228V13.8348ZM208.571 6.64271C208.272 7.09221 208.022 7.64162 207.872 8.24096H219.21C219.01 6.04337 217.262 4.6449 213.666 4.6449C211.269 4.6449 209.47 5.29419 208.571 6.64271Z" fill="#0627B0"/>
<path d="M20.028 40.8052V9.08998H18.7794C17.8304 17.0812 13.635 20.5774 5.64381 20.5774H0V9.13991H5.14436C12.6361 9.13991 16.6318 6.09327 16.6318 0.799072H33.763V40.8052H20.028Z" fill="#FB4073"/>
<path d="M46.1994 32.5643L44.5512 28.6686V28.9183V32.5144H43.7021V27.6697H44.8509L46.4991 31.5654L48.1473 27.6697H49.296V32.5144H48.4469V28.9183L48.4969 28.6686H48.4469L46.7988 32.5643H46.1994Z" fill="#0627B0"/>
<path d="M53.9407 31.1659H54.7398C54.6899 31.4156 54.59 31.6653 54.4402 31.915C54.2903 32.1648 54.0905 32.3646 53.7909 32.5144C53.4912 32.6642 53.0916 32.7641 52.6421 32.7641C52.0927 32.7641 51.5433 32.6143 50.9939 32.2647C50.4445 31.9151 50.1948 31.2658 50.1948 30.167C50.1948 29.6176 50.2947 29.1681 50.4446 28.7685C50.5944 28.3689 50.8941 28.0693 51.2437 27.8695C51.5933 27.6697 52.0428 27.5698 52.5422 27.5698C53.0916 27.5698 53.5412 27.6697 53.8408 27.9194C54.1405 28.1692 54.3902 28.4688 54.5401 28.8684C54.6899 29.2679 54.7398 29.7674 54.7898 30.3667H51.0938C51.0938 30.8163 51.1937 31.2158 51.4435 31.6154C51.6932 32.0149 52.0927 32.1648 52.5922 32.1648C52.9418 32.1648 53.2415 32.0649 53.4912 31.8651C53.7409 31.6653 53.8908 31.4655 53.9407 31.1659ZM51.0938 29.7674H53.9407C53.9407 29.3678 53.8408 28.9683 53.641 28.6686C53.4413 28.319 53.0916 28.1692 52.5922 28.1692C52.2426 28.1692 51.9429 28.269 51.7431 28.4189C51.5433 28.5687 51.3436 28.7685 51.2437 29.0182C51.1438 29.268 51.0938 29.5177 51.0938 29.7674Z" fill="#0627B0"/>
<path d="M55.0396 32.015H55.6389C55.8387 31.7652 55.9386 31.4656 56.0884 31.1659C56.1883 30.8662 56.2882 30.5666 56.3381 30.2669C56.3881 29.9672 56.438 29.6675 56.438 29.4178C56.438 29.1681 56.438 28.8684 56.438 28.6187V27.8196H59.8842V32.0649H60.7333L60.6834 33.9129H59.9841V32.6643H55.8387V33.9129H55.1394L55.0396 32.015ZM59.0352 28.369H57.1872V29.0183C57.1872 29.5677 57.1372 30.1171 56.9874 30.6664C56.8875 31.2158 56.6877 31.6654 56.488 32.015H59.0352V28.369Z" fill="#0627B0"/>
<path d="M62.1318 31.6152L64.629 27.7694H65.578V32.6141H64.7289V28.7184L62.2317 32.5642H61.2827V27.7195H62.1318V31.6152Z" fill="#0627B0"/>
<path d="M66.4771 27.7695H67.3261V29.2679C67.3261 29.4677 67.3261 29.6175 67.3761 29.7174C67.426 29.8173 67.5259 29.9172 67.6757 29.9671C67.8256 30.0171 68.0753 30.067 68.4249 30.067C68.5248 30.067 68.6746 30.067 68.8744 30.067C68.9244 30.067 68.9743 30.067 69.0742 30.067C69.1741 30.067 69.274 30.067 69.3239 30.067V27.8195H70.173V32.6642H69.3239V30.6663C68.8744 30.6663 68.5248 30.7163 68.2251 30.7163C67.6757 30.7163 67.2762 30.6664 67.0265 30.5665C66.7767 30.4666 66.6269 30.3167 66.5769 30.1669C66.527 30.0171 66.4771 29.7673 66.4771 29.5176V27.7695Z" fill="#0627B0"/>
<path d="M72.2206 30.3166V32.5642H71.3716V27.7195H72.2206V29.7173H74.618V27.7195H75.4671V32.5642H74.618V30.3166H72.2206Z" fill="#0627B0"/>
<path d="M76.6157 26.8205V25.9714H77.4648V26.8205H76.6157ZM76.6157 27.7695H77.4648V32.6141H76.6157V27.7695Z" fill="#0627B0"/>
<path d="M43.7021 35.7607H45.9996C46.9985 35.7607 47.5479 36.1603 47.5479 36.9095C47.5479 37.2091 47.448 37.4589 47.2982 37.6587C47.1484 37.8584 46.8986 37.9583 46.6989 38.0083V38.0582C47.0984 38.1581 47.3981 38.3079 47.5479 38.5077C47.6978 38.7075 47.7977 39.0072 47.7977 39.3069C47.7977 39.8063 47.6478 40.106 47.3482 40.3058C47.0485 40.5055 46.599 40.5555 46.0995 40.5555H43.852V35.7607H43.7021ZM44.5512 36.3601V37.8085H45.7C46.0496 37.8085 46.2993 37.7086 46.4491 37.5588C46.599 37.4089 46.6489 37.2591 46.6489 37.0593C46.6489 36.6098 46.3492 36.3601 45.7 36.3601H44.5512ZM44.5512 38.3579V40.0061H45.7998C46.4991 40.0061 46.8986 39.7564 46.8986 39.2569C46.8986 38.6576 46.549 38.3579 45.7998 38.3579H44.5512Z" fill="#0627B0"/>
<path d="M49.4956 39.6067L51.9928 35.7609H52.9418V40.6056H52.0927V36.7098L49.5954 40.5556H48.6465V35.7109H49.4956V39.6067Z" fill="#0627B0"/>
<path d="M54.1406 35.7608H54.9398V36.4101C55.3393 35.8607 55.8887 35.561 56.538 35.561C56.8876 35.561 57.1873 35.611 57.437 35.7109C57.6867 35.8108 57.9365 36.0105 58.1362 36.2103C58.336 36.4101 58.4859 36.7098 58.5858 37.0094C58.6856 37.3091 58.7356 37.7087 58.7356 38.1082C58.7356 38.6576 58.6357 39.1571 58.4359 39.5067C58.2361 39.9063 57.9864 40.2059 57.6867 40.4057C57.3371 40.6055 56.9875 40.7054 56.5879 40.7054C56.2383 40.7054 55.9387 40.6055 55.639 40.4557C55.3393 40.3058 55.1395 40.1061 54.9897 39.8064V42.2537H54.1406V35.7608ZM54.8898 38.1582C54.8898 38.6077 54.9398 38.9573 55.0896 39.257C55.2394 39.5566 55.3893 39.7564 55.639 39.9063C55.8887 40.0561 56.0885 40.106 56.3882 40.106C56.7877 40.106 57.1373 39.9562 57.3871 39.6066C57.6368 39.257 57.7866 38.7575 57.7866 38.1082C57.7866 37.6587 57.7367 37.3091 57.5868 37.0094C57.487 36.7098 57.2872 36.46 57.0874 36.3102C56.8876 36.1604 56.5879 36.0605 56.3382 36.0605C55.9387 36.0605 55.639 36.2103 55.3393 36.51C55.0396 36.8097 54.8898 37.409 54.8898 38.1582Z" fill="#0627B0"/>
<path d="M59.335 38.1582C59.335 37.6088 59.4348 37.1593 59.6346 36.7597C59.8344 36.3602 60.0841 36.0605 60.4338 35.8607C60.7834 35.6609 61.2329 35.561 61.6824 35.561C62.032 35.561 62.3816 35.611 62.6813 35.7608C62.981 35.9106 63.2307 36.0605 63.4305 36.2603C63.6302 36.46 63.7801 36.7597 63.88 37.0594C63.9799 37.3591 64.0298 37.7586 64.0298 38.1582C64.0298 38.5577 63.9799 38.9074 63.88 39.257C63.7801 39.6066 63.6302 39.8563 63.4305 40.0561C63.2307 40.3058 62.981 40.4557 62.6813 40.5556C62.3816 40.6554 62.032 40.7553 61.6824 40.7553C61.3328 40.7553 60.9832 40.7054 60.6835 40.5556C60.3838 40.4557 60.1341 40.2559 59.9343 40.0561C59.7345 39.8064 59.5847 39.5566 59.4848 39.207C59.3849 38.9074 59.335 38.5577 59.335 38.1582ZM60.234 38.1582C60.234 38.5078 60.2839 38.8075 60.3838 39.1071C60.4837 39.4068 60.6335 39.6565 60.8333 39.8563C61.0331 40.0561 61.3328 40.156 61.7323 40.156C62.1319 40.156 62.4316 40.0561 62.6313 39.8563C62.8311 39.6565 63.0309 39.4068 63.0809 39.1071C63.1807 38.8075 63.2307 38.4578 63.2307 38.1582C63.2307 37.8086 63.1807 37.5089 63.0809 37.2092C62.981 36.9095 62.8311 36.6598 62.6313 36.46C62.4316 36.2603 62.1319 36.1604 61.7323 36.1604C61.1829 36.1604 60.7834 36.3602 60.5836 36.7597C60.3838 37.1593 60.234 37.6088 60.234 38.1582Z" fill="#0627B0"/>
<path d="M68.5745 33.613H69.2737C69.2737 33.9127 69.1738 34.1125 68.9741 34.2623C68.8242 34.4122 68.6244 34.5121 68.4247 34.562C68.2249 34.612 67.9752 34.6619 67.6255 34.7118C67.176 34.7618 66.8264 34.8117 66.5267 34.9116C66.2271 35.0115 65.9774 35.2113 65.7776 35.511C65.5778 35.8106 65.4779 36.2102 65.428 36.8095H65.4779C65.5778 36.5099 65.7776 36.2102 66.0772 35.9605C66.3769 35.7107 66.7765 35.5609 67.3259 35.5609C67.7754 35.5609 68.125 35.6608 68.4746 35.8606C68.8242 36.0604 69.1239 36.36 69.3237 36.7596C69.5235 37.1592 69.6233 37.6586 69.6233 38.258C69.6233 38.7574 69.5235 39.2069 69.3237 39.6065C69.1239 40.006 68.8742 40.2558 68.4746 40.5055C68.125 40.7053 67.6755 40.8052 67.226 40.8052C66.9763 40.8052 66.7265 40.7552 66.4768 40.7053C66.2271 40.6553 65.9773 40.5055 65.7276 40.3057C65.4779 40.1059 65.2282 39.7563 65.0783 39.3068C64.9285 38.8573 64.8286 38.258 64.8286 37.5587C64.8286 36.8095 64.8786 36.2102 65.0284 35.7607C65.1782 35.3112 65.378 34.9616 65.5778 34.7118C65.8275 34.4621 66.0772 34.3123 66.4269 34.2124C66.7265 34.1125 67.1261 34.0626 67.5756 34.0126C67.9252 33.9627 68.1749 33.9127 68.3248 33.8628C68.4746 33.8128 68.5246 33.7129 68.5745 33.613ZM65.7776 38.258C65.7776 39.0071 65.9274 39.5066 66.277 39.8063C66.5767 40.056 66.9263 40.2058 67.3259 40.2058C68.3248 40.2058 68.8242 39.5565 68.8242 38.3079C68.8242 37.9583 68.7743 37.6087 68.7243 37.309C68.6244 37.0093 68.4746 36.7096 68.2748 36.5099C68.075 36.3101 67.7254 36.1602 67.3259 36.1602C67.176 36.1602 66.9763 36.2102 66.7265 36.2601C66.5267 36.36 66.277 36.5099 66.0772 36.8595C65.8775 37.1591 65.7776 37.6586 65.7776 38.258Z" fill="#0627B0"/>
<path d="M71.4716 39.6067L73.9689 35.7609H74.9179V40.6056H74.0688V36.7098L71.5715 40.5556H70.6226V35.7109H71.4716V39.6067Z" fill="#0627B0"/>
<path d="M166.617 30.6665C166.617 30.1171 166.717 29.6676 166.917 29.268C167.117 28.8685 167.366 28.5688 167.716 28.369C168.066 28.1692 168.515 28.0693 168.965 28.0693C169.314 28.0693 169.664 28.1193 169.964 28.2192C170.263 28.3191 170.513 28.5188 170.713 28.7186C170.912 28.9184 171.062 29.2181 171.162 29.5177C171.262 29.8174 171.312 30.217 171.312 30.6165C171.312 31.0161 171.262 31.3657 171.162 31.7153C171.062 32.015 170.912 32.3147 170.713 32.5145C170.513 32.7642 170.263 32.914 169.964 33.0139C169.664 33.1138 169.314 33.2137 168.965 33.2137C168.615 33.2137 168.265 33.1637 167.966 33.0139C167.666 32.914 167.416 32.7142 167.217 32.5145C167.017 32.3147 166.867 32.015 166.767 31.6654C166.667 31.4157 166.617 31.066 166.617 30.6665ZM167.516 30.6665C167.516 31.0161 167.566 31.3158 167.666 31.6154C167.766 31.9151 167.916 32.1648 168.116 32.3646C168.315 32.5644 168.615 32.6643 169.015 32.6643C169.414 32.6643 169.714 32.5644 169.914 32.3646C170.113 32.1648 170.313 31.9151 170.363 31.6154C170.463 31.3158 170.513 30.9661 170.513 30.6665C170.513 30.3169 170.463 30.0172 170.363 29.7175C170.263 29.4179 170.113 29.1681 169.914 28.9683C169.714 28.7686 169.414 28.6687 169.015 28.6687C168.465 28.6687 168.066 28.8685 167.866 29.268C167.616 29.6176 167.516 30.1171 167.516 30.6665Z" fill="#0627B0"/>
<path d="M171.612 32.5145H172.211C172.411 32.2648 172.511 31.9651 172.661 31.6654C172.811 31.3657 172.86 31.0661 172.91 30.7664C172.96 30.4667 173.01 30.1671 173.01 29.9173C173.01 29.6676 173.01 29.3679 173.01 29.1182V28.3191H176.457V32.5644H177.306L177.256 34.4124H176.556V33.1638H172.411V34.4124H171.662L171.612 32.5145ZM175.607 28.8685H173.759V29.5178C173.759 30.0672 173.71 30.6166 173.56 31.166C173.46 31.7154 173.26 32.1649 173.06 32.5145H175.607V28.8685Z" fill="#0627B0"/>
<path d="M178.654 30.8162V33.0637H177.805V28.219H178.654V30.2168H181.051V28.219H181.9V33.0637H181.051V30.8162H178.654Z" fill="#0627B0"/>
<path d="M182.799 30.6665C182.799 30.1171 182.899 29.6676 183.099 29.268C183.299 28.8685 183.549 28.5688 183.898 28.369C184.248 28.1692 184.697 28.0693 185.147 28.0693C185.496 28.0693 185.846 28.1193 186.146 28.2192C186.445 28.3191 186.695 28.5188 186.895 28.7186C187.095 28.9184 187.244 29.2181 187.344 29.5177C187.444 29.8174 187.494 30.217 187.494 30.6165C187.494 31.0161 187.444 31.3657 187.344 31.7153C187.244 32.015 187.095 32.3147 186.895 32.5145C186.695 32.7642 186.445 32.914 186.146 33.0139C185.846 33.1138 185.496 33.2137 185.147 33.2137C184.797 33.2137 184.448 33.1637 184.148 33.0139C183.848 32.914 183.598 32.7142 183.399 32.5145C183.199 32.3147 183.049 32.015 182.949 31.6654C182.849 31.4157 182.799 31.066 182.799 30.6665ZM183.698 30.6665C183.698 31.0161 183.748 31.3158 183.848 31.6154C183.948 31.9151 184.098 32.1648 184.298 32.3646C184.497 32.5644 184.797 32.6643 185.197 32.6643C185.596 32.6643 185.896 32.5644 186.096 32.3646C186.295 32.1648 186.495 31.9151 186.545 31.6154C186.645 31.3158 186.695 30.9661 186.695 30.6665C186.695 30.3169 186.645 30.0172 186.545 29.7175C186.445 29.4179 186.295 29.1681 186.096 28.9683C185.896 28.7686 185.596 28.6687 185.197 28.6687C184.647 28.6687 184.248 28.8685 184.048 29.268C183.798 29.6176 183.698 30.1171 183.698 30.6665Z" fill="#0627B0"/>
<path d="M188.443 28.2691H189.242V28.9184C189.642 28.369 190.191 28.0693 190.841 28.0693C191.19 28.0693 191.49 28.1193 191.74 28.2192C191.989 28.3191 192.239 28.5188 192.439 28.7186C192.639 28.9184 192.789 29.2181 192.888 29.5177C192.988 29.8174 193.038 30.217 193.038 30.6165C193.038 31.1659 192.938 31.6654 192.739 32.015C192.539 32.4146 192.289 32.7142 191.989 32.914C191.64 33.1138 191.29 33.2137 190.891 33.2137C190.541 33.2137 190.241 33.1138 189.942 32.964C189.642 32.8141 189.442 32.6144 189.292 32.3147V34.762H188.443V28.2691ZM189.242 30.6665C189.242 31.116 189.292 31.4656 189.442 31.7653C189.592 32.065 189.742 32.2647 189.992 32.4146C190.241 32.5644 190.441 32.6143 190.741 32.6143C191.14 32.6143 191.49 32.4645 191.74 32.1149C191.989 31.7653 192.139 31.2658 192.139 30.6165C192.139 30.167 192.089 29.8174 191.94 29.5177C191.84 29.2181 191.64 28.9683 191.44 28.8185C191.24 28.6687 190.941 28.5688 190.691 28.5688C190.291 28.5688 189.992 28.7186 189.692 29.0183C189.392 29.4179 189.242 29.9173 189.242 30.6665Z" fill="#0627B0"/>
<path d="M194.587 29.6675H193.788C193.788 29.3678 193.837 29.1181 193.987 28.8683C194.137 28.6186 194.337 28.4188 194.637 28.269C194.936 28.1192 195.336 28.0193 195.835 28.0193C197.134 28.0193 197.733 28.5687 197.733 29.6675L197.683 31.915C197.683 32.0648 197.683 32.2147 197.733 32.2646C197.733 32.3645 197.783 32.4145 197.883 32.4145C197.983 32.4145 198.083 32.4644 198.233 32.4644V33.0638C198.133 33.0638 197.983 33.1137 197.833 33.1137C197.583 33.1137 197.384 33.0638 197.234 32.9639C197.084 32.864 196.984 32.6642 196.984 32.4145C196.784 32.7641 196.535 32.9639 196.235 33.1137C195.935 33.2136 195.636 33.2635 195.336 33.2635C194.637 33.2635 194.187 33.1137 193.937 32.814C193.688 32.5144 193.638 32.1647 193.638 31.8151C193.638 31.6153 193.688 31.4156 193.738 31.2657C193.788 31.1159 193.887 30.9661 194.087 30.8162C194.287 30.6664 194.487 30.5665 194.786 30.4666C195.086 30.3667 195.486 30.3168 195.985 30.2668C196.285 30.2169 196.485 30.2169 196.584 30.2169C196.684 30.2169 196.784 30.1669 196.834 30.067C196.884 29.9672 196.934 29.8173 196.934 29.6175C196.934 29.218 196.834 28.9183 196.584 28.8184C196.335 28.7185 196.085 28.6186 195.885 28.6186C195.586 28.6186 195.336 28.6686 195.036 28.8184C194.736 28.9682 194.587 29.2679 194.587 29.6675ZM196.884 31.016V30.6164C196.784 30.6664 196.734 30.7163 196.634 30.7163C196.584 30.7163 196.435 30.7663 196.235 30.7663C195.835 30.8162 195.486 30.8662 195.236 30.9161C194.986 30.966 194.786 31.0659 194.637 31.2158C194.487 31.3656 194.437 31.5654 194.437 31.8151C194.437 32.0149 194.487 32.2147 194.637 32.4145C194.786 32.6142 195.036 32.7141 195.386 32.7141C195.785 32.7141 196.085 32.6142 196.335 32.4145C196.535 32.2147 196.684 32.0149 196.784 31.7652C196.834 31.5155 196.884 31.2657 196.884 31.016Z" fill="#0627B0"/>
<path d="M198.632 31.6154H199.431C199.431 31.9151 199.531 32.1648 199.781 32.3646C199.981 32.5644 200.33 32.7142 200.73 32.7142C201.13 32.7142 201.429 32.6143 201.679 32.4645C201.929 32.3146 202.029 32.0649 202.029 31.7653C202.029 31.1659 201.679 30.9162 200.93 30.9162H200.231V30.3168H200.83C201.479 30.3168 201.829 30.0671 201.829 29.5677C201.829 29.3179 201.729 29.1182 201.579 28.9683C201.429 28.8185 201.13 28.7186 200.73 28.7186C200.281 28.7186 199.981 28.8185 199.831 29.0183C199.681 29.218 199.581 29.4178 199.581 29.6675H198.782C198.782 29.4178 198.882 29.1681 198.982 28.9184C199.082 28.6686 199.282 28.5188 199.581 28.369C199.881 28.2191 200.281 28.1692 200.73 28.1692C201.229 28.1692 201.629 28.2191 201.879 28.369C202.178 28.5188 202.378 28.6686 202.478 28.9184C202.578 29.1181 202.628 29.3679 202.628 29.5677C202.628 29.8673 202.528 30.1171 202.378 30.3168C202.228 30.4667 202.029 30.6165 201.779 30.6165V30.6665C201.929 30.7164 202.079 30.7663 202.278 30.8662C202.478 30.9661 202.578 31.116 202.678 31.2658C202.778 31.4656 202.828 31.6654 202.828 31.9151C202.828 32.2647 202.678 32.6143 202.378 32.914C202.079 33.2137 201.529 33.3635 200.78 33.3635C200.281 33.3635 199.831 33.2636 199.382 33.0638C198.932 32.864 198.682 32.2647 198.632 31.6154Z" fill="#0627B0"/>
<path d="M203.477 30.6665C203.477 30.1171 203.576 29.6676 203.776 29.268C203.976 28.8685 204.226 28.5688 204.575 28.369C204.925 28.1692 205.374 28.0693 205.824 28.0693C206.174 28.0693 206.523 28.1193 206.823 28.2192C207.123 28.3191 207.372 28.5188 207.572 28.7186C207.772 28.9184 207.922 29.2181 208.022 29.5177C208.121 29.8174 208.171 30.217 208.171 30.6165C208.171 31.0161 208.121 31.3657 208.022 31.7153C207.922 32.015 207.772 32.3147 207.572 32.5145C207.372 32.7642 207.123 32.914 206.823 33.0139C206.523 33.1138 206.174 33.2137 205.824 33.2137C205.474 33.2137 205.125 33.1637 204.825 33.0139C204.525 32.8641 204.276 32.7142 204.076 32.5145C203.876 32.2647 203.726 32.015 203.626 31.6654C203.527 31.4157 203.477 31.066 203.477 30.6665ZM204.376 30.6665C204.376 31.0161 204.426 31.3158 204.525 31.6154C204.625 31.9151 204.775 32.1648 204.975 32.3646C205.175 32.5644 205.474 32.6643 205.874 32.6643C206.273 32.6643 206.573 32.5644 206.773 32.3646C206.973 32.1648 207.173 31.9151 207.222 31.6154C207.322 31.3158 207.372 30.9661 207.372 30.6665C207.372 30.3169 207.322 30.0172 207.222 29.7175C207.123 29.4179 206.973 29.1681 206.773 28.9683C206.573 28.7686 206.273 28.6687 205.874 28.6687C205.325 28.6687 204.925 28.8685 204.725 29.268C204.475 29.6176 204.376 30.1171 204.376 30.6665Z" fill="#0627B0"/>
<path d="M209.17 28.269H211.468C212.467 28.269 213.016 28.6686 213.016 29.4178C213.016 29.7174 212.916 29.9672 212.766 30.167C212.617 30.3667 212.367 30.4666 212.167 30.5166V30.5665C212.567 30.6664 212.866 30.8162 213.016 31.016C213.166 31.2158 213.266 31.5155 213.266 31.8152C213.266 32.3146 213.116 32.6143 212.816 32.8141C212.517 33.0138 212.067 33.0638 211.568 33.0638H209.32V28.269H209.17ZM209.97 28.8684V30.3168H211.118C211.468 30.3168 211.718 30.2169 211.867 30.0671C212.017 29.9172 212.067 29.7674 212.067 29.5676C212.067 29.1181 211.768 28.8684 211.118 28.8684H209.97ZM209.97 30.8662V32.5144H211.218C211.917 32.5144 212.317 32.2647 212.317 31.7652C212.317 31.1659 211.967 30.8662 211.218 30.8662H209.97Z" fill="#0627B0"/>
<path d="M213.815 30.6665C213.815 30.1171 213.915 29.6676 214.115 29.268C214.315 28.8685 214.565 28.5688 214.914 28.369C215.264 28.1692 215.713 28.0693 216.163 28.0693C216.512 28.0693 216.862 28.1193 217.162 28.2192C217.461 28.3191 217.711 28.5188 217.911 28.7186C218.111 28.9184 218.261 29.2181 218.36 29.5177C218.46 29.8174 218.51 30.217 218.51 30.6165C218.51 31.0161 218.46 31.3657 218.36 31.7153C218.261 32.015 218.111 32.3147 217.911 32.5145C217.711 32.7642 217.461 32.914 217.162 33.0139C216.862 33.1138 216.512 33.2137 216.163 33.2137C215.813 33.2137 215.464 33.1637 215.164 33.0139C214.864 32.8641 214.615 32.7142 214.415 32.5145C214.215 32.2647 214.065 32.015 213.965 31.6654C213.865 31.4157 213.815 31.066 213.815 30.6665ZM214.714 30.6665C214.714 31.0161 214.764 31.3158 214.864 31.6154C214.964 31.9151 215.114 32.1648 215.314 32.3646C215.514 32.5644 215.813 32.6643 216.213 32.6643C216.612 32.6643 216.912 32.5644 217.112 32.3646C217.312 32.1648 217.511 31.9151 217.561 31.6154C217.661 31.3158 217.711 30.9661 217.711 30.6665C217.711 30.3169 217.661 30.0172 217.561 29.7175C217.461 29.4179 217.312 29.1681 217.112 28.9683C216.912 28.7686 216.612 28.6687 216.213 28.6687C215.663 28.6687 215.264 28.8685 215.064 29.268C214.814 29.6176 214.714 30.1171 214.714 30.6665Z" fill="#0627B0"/>
<path d="M220.308 28.8684V33.1137H219.459V28.269H222.755V28.8684H220.308Z" fill="#0627B0"/>
<path d="M223.155 30.6665C223.155 30.1171 223.255 29.6676 223.455 29.268C223.655 28.8685 223.904 28.5688 224.254 28.369C224.604 28.1692 225.053 28.0693 225.503 28.0693C225.852 28.0693 226.202 28.1193 226.502 28.2192C226.801 28.3191 227.051 28.5188 227.251 28.7186C227.451 28.9184 227.6 29.2181 227.7 29.5177C227.8 29.8174 227.85 30.217 227.85 30.6165C227.85 31.0161 227.8 31.3657 227.7 31.7153C227.6 32.015 227.451 32.3147 227.251 32.5145C227.051 32.7642 226.801 32.914 226.502 33.0139C226.202 33.1138 225.852 33.2137 225.503 33.2137C225.153 33.2137 224.803 33.1637 224.504 33.0139C224.204 32.8641 223.954 32.7142 223.755 32.5145C223.555 32.2647 223.405 32.015 223.305 31.6654C223.205 31.4157 223.155 31.066 223.155 30.6665ZM224.004 30.6665C224.004 31.0161 224.054 31.3158 224.154 31.6154C224.254 31.9151 224.404 32.1648 224.604 32.3646C224.803 32.5644 225.103 32.6643 225.503 32.6643C225.902 32.6643 226.202 32.5644 226.402 32.3646C226.601 32.1648 226.801 31.9151 226.851 31.6154C226.951 31.3158 227.001 30.9661 227.001 30.6665C227.001 30.3169 226.951 30.0172 226.851 29.7175C226.751 29.4179 226.601 29.1681 226.402 28.9683C226.202 28.7686 225.902 28.6687 225.503 28.6687C224.953 28.6687 224.554 28.8685 224.354 29.268C224.154 29.6176 224.004 30.1171 224.004 30.6665Z" fill="#0627B0"/>
<path d="M166.917 36.2603H169.214C170.213 36.2603 170.763 36.6598 170.763 37.409C170.763 37.7087 170.663 37.9584 170.513 38.1582C170.363 38.3579 170.113 38.4578 169.914 38.5078V38.5577C170.313 38.6576 170.613 38.8075 170.763 39.0072C170.913 39.207 171.013 39.5067 171.013 39.8064C171.013 40.3058 170.863 40.6055 170.563 40.8053C170.263 41.0051 169.814 41.055 169.314 41.055H167.067V36.2603H166.917ZM167.716 36.8596V38.308H168.865C169.214 38.308 169.464 38.2081 169.614 38.0583C169.764 37.9084 169.814 37.7586 169.814 37.5588C169.814 37.1093 169.514 36.8596 168.865 36.8596H167.716ZM167.716 38.8574V40.5056H168.965C169.664 40.5056 170.064 40.2559 170.064 39.7564C170.064 39.1571 169.714 38.8574 168.965 38.8574H167.716Z" fill="#0627B0"/>
<path d="M172.661 40.1059L175.158 36.2602H176.107V41.1048H175.258V37.2091L172.76 41.0549H171.812V36.2102H172.661V40.1059Z" fill="#0627B0"/>
<path d="M178.155 38.3579L180.202 36.2603H181.201L178.954 38.5078L181.351 41.1049H180.352L178.205 38.7076V41.1049H177.355V36.2603H178.205V38.3579H178.155Z" fill="#0627B0"/>
<path d="M181.501 38.6577C181.501 38.1083 181.601 37.6588 181.801 37.2592C182 36.8597 182.25 36.56 182.6 36.3602C182.949 36.1604 183.399 36.0605 183.848 36.0605C184.198 36.0605 184.548 36.1105 184.847 36.2104C185.147 36.3103 185.397 36.51 185.596 36.7098C185.796 36.9096 185.946 37.2093 186.046 37.509C186.146 37.8086 186.196 38.2082 186.196 38.6077C186.196 39.0073 186.146 39.3569 186.046 39.7065C185.946 40.0062 185.796 40.3059 185.596 40.5057C185.397 40.7554 185.147 40.9052 184.847 41.0051C184.548 41.105 184.198 41.2049 183.848 41.2049C183.499 41.2049 183.149 41.155 182.849 41.0051C182.55 40.8553 182.3 40.7054 182.1 40.5057C181.901 40.2559 181.751 40.0062 181.651 39.6566C181.551 39.4069 181.501 39.0573 181.501 38.6577ZM182.4 38.6577C182.4 39.0073 182.45 39.307 182.55 39.6066C182.65 39.9063 182.8 40.156 182.999 40.3558C183.199 40.5556 183.499 40.6555 183.898 40.6555C184.298 40.6555 184.598 40.5556 184.797 40.3558C184.997 40.156 185.197 39.9063 185.247 39.6066C185.347 39.307 185.397 38.9574 185.397 38.6577C185.397 38.3081 185.347 38.0084 185.247 37.7087C185.147 37.4091 184.997 37.1593 184.797 36.9596C184.598 36.7598 184.298 36.6599 183.898 36.6599C183.349 36.6599 182.949 36.8597 182.75 37.2592C182.5 37.6088 182.4 38.1083 182.4 38.6577Z" fill="#0627B0"/>
<path d="M187.195 36.2603H187.994V36.9096C188.394 36.3602 188.943 36.0605 189.592 36.0605C189.942 36.0605 190.241 36.1105 190.491 36.2104C190.741 36.3103 190.991 36.51 191.19 36.7098C191.39 36.9096 191.54 37.2093 191.64 37.509C191.74 37.8086 191.79 38.2082 191.79 38.6077C191.79 39.1571 191.69 39.6566 191.49 40.0062C191.29 40.4058 191.041 40.7054 190.741 40.9052C190.391 41.105 190.042 41.2049 189.642 41.2049C189.293 41.2049 188.993 41.105 188.693 40.9552C188.394 40.8053 188.194 40.6056 188.044 40.3059V42.7532H187.195V36.2603ZM187.944 38.6577C187.944 39.1072 187.994 39.4568 188.144 39.7565C188.294 40.0562 188.443 40.2559 188.693 40.4058C188.943 40.5556 189.143 40.6055 189.442 40.6055C189.842 40.6055 190.192 40.4557 190.441 40.1061C190.691 39.7565 190.841 39.257 190.841 38.6077C190.841 38.1582 190.791 37.8086 190.641 37.509C190.541 37.2093 190.341 36.9596 190.142 36.8097C189.942 36.6599 189.642 36.56 189.392 36.56C188.993 36.56 188.693 36.7098 188.394 37.0095C188.094 37.4091 187.944 37.9085 187.944 38.6577Z" fill="#0627B0"/>
<path d="M193.488 40.1059L195.985 36.2602H196.934V41.1048H196.085V37.2091L193.588 41.0549H192.639V36.2102H193.488V40.1059Z" fill="#0627B0"/>
<path d="M201.529 39.3568H202.328C202.278 39.8562 202.078 40.3058 201.779 40.7053C201.479 41.1049 200.929 41.3047 200.23 41.3047C199.331 41.3047 198.682 41.005 198.382 40.4556C198.033 39.9062 197.883 39.3068 197.883 38.6576C197.883 38.258 197.933 37.8584 198.083 37.5088C198.182 37.1093 198.432 36.8096 198.782 36.5099C199.131 36.2602 199.581 36.1104 200.18 36.1104C200.83 36.1104 201.379 36.2602 201.679 36.6098C202.028 36.9594 202.228 37.359 202.278 37.8085H201.479C201.429 37.5088 201.279 37.2591 201.079 37.0094C200.88 36.8096 200.58 36.7097 200.13 36.7097C199.781 36.7097 199.481 36.8096 199.281 36.9594C199.081 37.1592 198.932 37.359 198.832 37.6587C198.732 37.9583 198.682 38.258 198.682 38.6576C198.682 39.0072 198.732 39.3568 198.832 39.6565C198.932 39.9561 199.081 40.2059 199.331 40.4056C199.531 40.6054 199.831 40.7053 200.18 40.7053C200.63 40.7053 200.929 40.5555 201.129 40.3058C201.379 39.9561 201.479 39.6565 201.529 39.3568Z" fill="#0627B0"/>
<path d="M204.276 36.8596H202.628V36.2603H206.823V36.8596H205.125V41.1049H204.276V36.8596Z" fill="#0627B0"/>
<path d="M208.072 37.6587H207.273C207.273 37.359 207.323 37.1093 207.473 36.8596C207.623 36.6098 207.822 36.4101 208.122 36.2602C208.422 36.1104 208.821 36.0105 209.321 36.0105C210.619 36.0105 211.219 36.5599 211.219 37.6587L211.169 39.9062C211.169 40.0561 211.169 40.2059 211.219 40.2558C211.219 40.3557 211.268 40.4057 211.368 40.4057C211.418 40.4556 211.568 40.4556 211.718 40.4556V41.055C211.618 41.055 211.468 41.1049 211.318 41.1049C211.069 41.1049 210.869 41.055 210.719 40.9551C210.569 40.8552 210.469 40.6554 210.469 40.4057C210.27 40.7553 210.02 40.9551 209.72 41.1049C209.421 41.2048 209.121 41.2547 208.821 41.2547C208.122 41.2547 207.672 41.1049 207.423 40.8052C207.173 40.5056 207.123 40.156 207.123 39.8063C207.123 39.6066 207.173 39.4068 207.223 39.2569C207.273 39.1071 207.373 38.9573 207.573 38.8074C207.772 38.6576 207.972 38.5577 208.272 38.4578C208.571 38.3579 208.971 38.308 209.47 38.258C209.77 38.2081 209.97 38.2081 210.07 38.2081C210.17 38.2081 210.27 38.1581 210.32 38.0583C210.369 37.9584 210.419 37.8085 210.419 37.6087C210.419 37.2092 210.32 36.9095 210.07 36.8096C209.82 36.7097 209.57 36.6098 209.371 36.6098C209.071 36.6098 208.821 36.6598 208.522 36.8096C208.172 36.9595 208.072 37.2591 208.072 37.6587ZM210.369 39.0072V38.6076C210.27 38.6576 210.22 38.7075 210.12 38.7075C210.07 38.7075 209.92 38.7575 209.72 38.7575C209.321 38.8074 208.971 38.8574 208.721 38.9073C208.472 38.9573 208.272 39.0572 208.122 39.207C207.972 39.3568 207.922 39.5566 207.922 39.8063C207.922 40.0061 207.972 40.2059 208.122 40.4057C208.272 40.6055 208.522 40.7053 208.871 40.7053C209.271 40.7053 209.57 40.6055 209.82 40.4057C210.02 40.2059 210.17 40.0061 210.27 39.7564C210.32 39.5067 210.369 39.2569 210.369 39.0072Z" fill="#0627B0"/>
<path d="M213.316 38.8074V41.0549H212.467V36.2102H213.316V38.208H215.713V36.2102H216.562V41.0549H215.713V38.8074H213.316Z" fill="#0627B0"/>
<path d="M218.56 38.8074V41.0549H217.711V36.2102H218.56V38.208H220.957V36.2102H221.806V41.0549H220.957V38.8074H218.56Z" fill="#0627B0"/>
<path d="M224.853 39.1571L223.605 41.055H222.706L224.004 39.1571C223.704 39.1071 223.355 39.0072 223.105 38.8075C222.805 38.6077 222.706 38.2581 222.706 37.7586C222.706 37.5089 222.756 37.2592 222.855 37.0094C222.955 36.7597 223.105 36.6099 223.355 36.46C223.605 36.3102 223.904 36.2603 224.304 36.2603H226.701V41.1049H225.852V39.207H224.853V39.1571ZM225.852 36.8596H224.653C224.354 36.8596 224.104 36.9095 223.854 37.0094C223.655 37.1093 223.505 37.359 223.505 37.7586C223.505 37.9584 223.605 38.1582 223.754 38.3579C223.904 38.5577 224.204 38.6077 224.653 38.6077H225.852V36.8596Z" fill="#0627B0"/>
</svg>
