<svg width="166" height="56" viewBox="0 0 166 56" fill="none" xmlns="http://www.w3.org/2000/svg">
<path fill-rule="evenodd" clip-rule="evenodd" d="M60.1719 18.2384V30.4465H61.9763V23.4967C61.9763 19.8931 64.4067 19.6725 67.279 19.6725C70.1513 19.6725 72.2135 19.7828 72.2135 23.0922V30.4465H74.0548V23.0922C74.0548 19.9299 76.5588 19.6725 79.0261 19.6725H79.6153C82.4139 19.6725 84.292 19.9667 84.292 23.0922V30.4465H86.1332V23.0922C86.1332 18.5326 83.2609 18.0546 79.3943 18.0546C77.0007 18.0546 74.5703 18.1281 73.5024 20.6286C72.4713 18.0546 69.7095 18.0546 67.3159 18.0546H66.9476C65.0327 18.0546 62.8233 18.1649 61.9763 20.2241V18.2384H60.1719Z" fill="#231F20"/>
<path fill-rule="evenodd" clip-rule="evenodd" d="M102.226 30.4466V22.8349C102.226 20.8125 101.931 19.0842 99.6481 18.5327C97.3649 17.9811 96.1497 18.0547 94.3821 18.0547C93.4342 18.0621 92.4875 18.1235 91.5466 18.2385C89.0426 18.4224 87.901 19.2313 87.901 21.8789H89.8895C89.8895 20.6654 90.2578 20.0035 91.5466 19.8197C92.7208 19.6973 93.9015 19.6482 95.0818 19.6726C96.3707 19.6726 98.617 19.7094 99.4271 20.2609C100.237 20.8125 100.385 22.173 100.385 23.2394V24.5632C99.6481 23.5336 99.0589 23.2762 97.77 23.2026L94.3085 23.0923C93.1403 23.0495 91.9706 23.0987 90.8101 23.2394C88.1956 23.46 87.3486 24.3426 87.3486 26.9901C87.3486 30.3363 90.0368 30.5937 92.6882 30.5937H97.6227C98.8379 30.4834 99.7585 30.1524 100.385 29.0493V30.4834L102.226 30.4466ZM89.3003 26.9901C89.3003 26.2179 89.4476 25.4089 90.2946 25.1515C91.1416 24.8941 93.1669 24.7103 94.3453 24.7103H95.9656C97.1808 24.7103 98.617 24.8206 99.4271 25.1515C99.7319 25.3126 99.984 25.5576 100.154 25.8573C100.323 26.1571 100.404 26.4992 100.385 26.843C100.427 27.2846 100.298 27.7257 100.024 28.0748C99.7494 28.4239 99.3512 28.6543 98.9116 28.7183C97.6964 29.0493 95.5973 29.0493 94.2717 29.0493H92.1358C90.6628 28.9022 89.3003 28.7919 89.3003 26.9901Z" fill="#231F20"/>
<path fill-rule="evenodd" clip-rule="evenodd" d="M110.842 22.9085L106.055 18.2385H103.33L109.48 23.9749L102.594 30.4466H105.282L110.842 25.078L116.329 30.4466H118.981L112.205 23.9749L118.355 18.2385H115.63L110.842 22.9085Z" fill="#231F20"/>
<path fill-rule="evenodd" clip-rule="evenodd" d="M123.584 18.2386V15.4807H121.78V18.2386H118.834V19.783H121.78V26.5489C121.78 30.3363 124.1 30.5937 127.267 30.5937C132.128 30.5937 132.349 29.1597 132.349 25.0413H130.692V26.4386C130.692 28.8655 129.071 29.0126 127.046 29.0126C124.358 29.0126 123.584 28.4242 123.584 25.6664V19.783H132.017V18.2386H123.584Z" fill="#231F20"/>
<path fill-rule="evenodd" clip-rule="evenodd" d="M148.662 24.6366C148.662 24.4528 148.699 24.2322 148.699 24.0115C148.699 18.312 145.863 18.2752 141.039 18.0546H139.75C134.889 18.0546 133.085 19.3048 133.085 24.3792C133.085 30.6304 136.694 30.6304 141.739 30.6304C144.611 30.6304 148.662 30.5201 148.662 26.8061H146.747C146.759 27.1909 146.653 27.5703 146.442 27.8926C146.231 28.215 145.926 28.4647 145.569 28.6079C144.611 29.0124 143.175 29.0492 141.997 29.0492H140.965C139.807 29.0868 138.648 29.0129 137.504 28.8286C135.184 28.3505 135 26.6958 134.926 24.6734L148.662 24.6366ZM146.784 23.0922H135C135.037 22.2097 135.11 21.1801 135.847 20.5918C136.583 20.0034 138.866 19.6725 140.339 19.6725H141.776C143.175 19.6725 145.09 19.746 145.974 20.6286C146.857 21.5111 146.747 22.2097 146.784 23.0922Z" fill="#231F20"/>
<path fill-rule="evenodd" clip-rule="evenodd" d="M163.022 26.0707C162.949 27.5048 162.396 28.3873 160.923 28.7183C159.893 28.9254 158.844 29.0239 157.793 29.0124C156.536 29.0059 155.28 28.9075 154.037 28.7183C151.607 28.3873 151.496 26.4384 151.496 24.4896C151.446 23.5119 151.546 22.5324 151.791 21.5846C151.887 21.2557 152.056 20.9527 152.286 20.6981C152.515 20.4434 152.799 20.2437 153.117 20.1138C154.258 19.6725 155.989 19.6725 157.204 19.6725H157.499C158.677 19.6725 160.702 19.7093 161.623 20.2241C162.544 20.7389 162.802 21.5111 162.802 22.5039H164.716C164.716 17.8707 160.629 18.1649 157.204 18.0546H156.099C153.964 18.0546 151.496 18.3487 150.207 20.3712C149.545 21.4375 149.508 23.2026 149.508 24.4896C149.508 29.9317 152.417 30.6304 157.167 30.6304H159.193C162.47 30.5568 164.827 29.8949 164.9 26.1443L163.022 26.0707Z" fill="#231F20"/>
<path d="M0.368164 29.5272C0.368164 28.429 0.694283 27.3555 1.30528 26.4424C1.91628 25.5293 2.78471 24.8176 3.80076 24.3974C4.81681 23.9771 5.93485 23.8672 7.01348 24.0814C8.09212 24.2957 9.08291 24.8245 9.86056 25.601C10.6382 26.3775 11.1678 27.3669 11.3824 28.444C11.5969 29.521 11.4868 30.6375 11.0659 31.652C10.6451 32.6666 9.93236 33.5338 9.01794 34.1439C8.10352 34.754 7.02845 35.0797 5.92868 35.0797C4.45692 35.07 3.04818 34.482 2.00747 33.4427C0.966753 32.4035 0.377815 30.9968 0.368164 29.5272Z" fill="#1197D4"/>
<path d="M42.091 3.75108C42.0837 3.07892 42.2772 2.41983 42.6466 1.8579C43.0161 1.29598 43.5448 0.856695 44.1653 0.596101C44.7858 0.335507 45.47 0.265418 46.1306 0.394776C46.7912 0.524133 47.3983 0.847073 47.8743 1.32239C48.3503 1.79771 48.6737 2.40386 48.8032 3.0635C48.9328 3.72313 48.8626 4.40635 48.6016 5.02599C48.3406 5.64562 47.9007 6.17358 47.338 6.54249C46.7752 6.9114 46.1152 7.10454 45.4421 7.09727C44.5533 7.09727 43.701 6.74473 43.0725 6.1172C42.4441 5.48967 42.091 4.63855 42.091 3.75108Z" fill="#1197D4"/>
<path d="M41.8331 47.6187C41.8258 46.1902 42.2439 44.7917 43.0341 43.6009C43.8244 42.41 44.9513 41.4806 46.2716 40.9305C47.5919 40.3805 49.0462 40.2347 50.4497 40.5116C51.8532 40.7885 53.1426 41.4757 54.1543 42.4858C55.1659 43.496 55.854 44.7835 56.1313 46.185C56.4087 47.5865 56.2626 49.0386 55.7118 50.3571C55.1609 51.6755 54.2301 52.8007 53.0376 53.5899C51.845 54.379 50.4445 54.7964 49.0139 54.7892C47.1094 54.7892 45.283 54.0337 43.9363 52.689C42.5896 51.3443 41.8331 49.5205 41.8331 47.6187Z" fill="#1197D4"/>
<path d="M14.4727 23.4233C14.4654 19.9948 15.4774 16.6412 17.3804 13.7874C19.2834 10.9336 21.9919 8.70807 25.1626 7.39266C28.3334 6.07725 31.8238 5.73117 35.1918 6.39827C38.5597 7.06536 41.6535 8.71562 44.0814 11.14C46.5093 13.5643 48.1619 16.6537 48.83 20.0168C49.498 23.3798 49.1514 26.8652 47.8341 30.0314C46.5168 33.1975 44.288 35.9021 41.4301 37.8023C38.5722 39.7026 35.2138 40.7131 31.7803 40.7058C27.193 40.6961 22.7964 38.8722 19.5527 35.6332C16.309 32.3942 14.4824 28.0039 14.4727 23.4233Z" fill="#1197D4"/>
</svg>
