<svg width="168" height="32" viewBox="0 0 168 32" fill="none" xmlns="http://www.w3.org/2000/svg">
<path d="M31.7231 14.5363V0.698865H38.3475L37.0962 5.11507H37.7218C39.3043 1.4717 41.218 0.0732422 44.8246 0.0732422C48.7624 0.0732422 50.7496 1.98693 50.7496 5.5199V8.28003H44.0149V6.88156C44.0149 5.18868 43.2789 4.30544 41.4388 4.30544C39.4883 4.30544 38.4947 5.5199 38.4947 7.54399V14.5363H31.7231Z" fill="white"/>
<path d="M73.8987 6.21962V14.5368H67.4952L68.5624 10.783H67.9736C66.9431 13.764 64.367 15.1624 59.9508 15.1624C57.4851 15.1624 55.829 14.6472 54.909 13.6904C54.2465 13.0279 53.9153 12.1447 53.9153 11.0406C53.9153 9.9734 54.2465 9.12696 54.9458 8.42772C55.9026 7.47088 57.5219 6.88205 59.73 6.73484L67.2375 6.33003V5.8516C67.2375 4.37953 66.0967 3.6435 63.8886 3.6435C60.5396 3.6435 60.4292 5.33638 60.3924 5.66759V5.7044H53.6577C53.7313 4.89476 54.0625 0.073735 63.9622 0.073735C70.6969 0.0369333 73.8987 2.06102 73.8987 6.21962ZM67.1639 8.86935L62.6373 9.16376C61.9013 9.23736 61.3493 9.45817 61.0181 9.75259C60.7972 9.9734 60.7236 10.2678 60.7236 10.599C60.7236 10.9302 60.7972 11.2247 61.0181 11.4455C61.3125 11.7399 61.9381 11.9239 62.8949 11.9239C66.3911 11.9239 67.1639 9.82619 67.1639 8.86935Z" fill="white"/>
<path d="M77.7261 14.5366V9.01635L87.9938 5.07856V4.48974H77.7261V0.662354H96.0533V6.18261L85.7121 10.1204V10.7092H96.0901V14.5366H77.7261Z" fill="white"/>
<path d="M99.9175 11.3351C99.1815 10.2678 98.8135 9.01655 98.8135 7.61809C98.8135 6.18282 99.2183 4.93156 99.9175 3.90111C101.574 1.47219 105.18 0.0737305 110.112 0.0737305C115.043 0.0737305 118.65 1.509 120.306 3.90111C121.042 4.96836 121.447 6.21962 121.447 7.61809C121.447 9.05335 121.042 10.3046 120.306 11.3351C118.65 13.764 115.043 15.1624 110.112 15.1624C105.18 15.1624 101.574 13.764 99.9175 11.3351ZM114.049 9.60538C114.417 9.05335 114.601 8.39092 114.601 7.61809C114.601 6.84525 114.417 6.18281 114.049 5.63078C113.35 4.63714 112.025 4.04831 110.112 4.04831C108.235 4.04831 106.873 4.63714 106.174 5.63078C105.806 6.18281 105.622 6.84525 105.622 7.61809C105.622 8.39092 105.806 9.05335 106.174 9.60538C106.873 10.599 108.235 11.1878 110.112 11.1878C112.025 11.1878 113.35 10.599 114.049 9.60538Z" fill="white"/>
<path d="M128.843 14.5367L122.477 0.699219H129.506L133.517 10.3045L133.811 11.9974H134.437L134.732 10.3045L138.78 0.699219H145.809L139.369 14.5367H128.843Z" fill="white"/>
<path d="M168.001 10.1941C167.191 13.2118 163.29 15.1623 157.586 15.1623C152.986 15.1623 149.453 13.8374 147.834 11.5189C147.098 10.4517 146.729 9.12684 146.729 7.61796C146.729 6.07229 147.134 4.74742 147.87 3.68017C149.526 1.32486 152.875 0 157.476 0C164.137 0 168.001 2.76013 168.001 7.61796V8.68521H153.207C153.317 9.31084 153.501 9.82606 153.795 10.2309C154.458 11.1877 155.746 11.6662 157.586 11.6662C159.573 11.6662 160.751 11.1141 161.413 10.1205H168.001V10.1941ZM153.685 4.89463C153.464 5.22584 153.28 5.63067 153.17 6.07229H161.524C161.377 4.45301 160.089 3.42256 157.439 3.42256C155.672 3.42256 154.347 3.90098 153.685 4.89463Z" fill="white"/>
<path d="M14.7575 30.0671V6.69796H13.8375C13.1382 12.5862 10.0469 15.1624 4.15859 15.1624H0V6.73475H3.79058C9.31084 6.73475 12.255 4.48985 12.255 0.588867H24.878V30.0671H14.7575Z" fill="#FB4073"/>
</svg>
