<svg width="168" height="32" viewBox="0 0 168 32" fill="none" xmlns="http://www.w3.org/2000/svg">
<path d="M31.7229 14.5363V0.698865H38.3472L37.096 5.11507H37.7216C39.3041 1.4717 41.2178 0.0732422 44.8243 0.0732422C48.7621 0.0732422 50.7494 1.98693 50.7494 5.5199V8.28003H44.0147V6.88156C44.0147 5.18868 43.2786 4.30544 41.4386 4.30544C39.4881 4.30544 38.4944 5.5199 38.4944 7.54399V14.5363H31.7229Z" fill="#0627B0"/>
<path d="M73.8984 6.21962V14.5368H67.4949L68.5622 10.783H67.9733C66.9429 13.764 64.3668 15.1624 59.9506 15.1624C57.4848 15.1624 55.8288 14.6472 54.9087 13.6904C54.2463 13.0279 53.9151 12.1447 53.9151 11.0406C53.9151 9.9734 54.2463 9.12696 54.9455 8.42772C55.9024 7.47088 57.5217 6.88205 59.7298 6.73484L67.2373 6.33003V5.8516C67.2373 4.37953 66.0964 3.6435 63.8883 3.6435C60.5394 3.6435 60.429 5.33638 60.3922 5.66759V5.7044H53.6575C53.7311 4.89476 54.0623 0.073735 63.962 0.073735C70.6967 0.0369333 73.8984 2.06102 73.8984 6.21962ZM67.1637 8.86935L62.6371 9.16376C61.9011 9.23736 61.349 9.45817 61.0178 9.75259C60.797 9.9734 60.7234 10.2678 60.7234 10.599C60.7234 10.9302 60.797 11.2247 61.0178 11.4455C61.3122 11.7399 61.9379 11.9239 62.8947 11.9239C66.3909 11.9239 67.1637 9.82619 67.1637 8.86935Z" fill="#0627B0"/>
<path d="M77.7256 14.5366V9.01635L87.9933 5.07856V4.48974H77.7256V0.662354H96.0528V6.18261L85.7116 10.1204V10.7092H96.0897V14.5366H77.7256Z" fill="#0627B0"/>
<path d="M99.917 11.3351C99.181 10.2678 98.813 9.01655 98.813 7.61809C98.813 6.18282 99.2178 4.93156 99.917 3.90111C101.573 1.47219 105.18 0.0737305 110.111 0.0737305C115.043 0.0737305 118.649 1.509 120.305 3.90111C121.041 4.96836 121.446 6.21962 121.446 7.61809C121.446 9.05335 121.041 10.3046 120.305 11.3351C118.649 13.764 115.043 15.1624 110.111 15.1624C105.18 15.1624 101.573 13.764 99.917 11.3351ZM114.049 9.60538C114.417 9.05335 114.601 8.39092 114.601 7.61809C114.601 6.84525 114.417 6.18281 114.049 5.63078C113.35 4.63714 112.025 4.04831 110.111 4.04831C108.234 4.04831 106.873 4.63714 106.173 5.63078C105.805 6.18281 105.621 6.84525 105.621 7.61809C105.621 8.39092 105.805 9.05335 106.173 9.60538C106.873 10.599 108.234 11.1878 110.111 11.1878C112.025 11.1878 113.35 10.599 114.049 9.60538Z" fill="#0627B0"/>
<path d="M128.843 14.5367L122.476 0.699219H129.505L133.517 10.3045L133.811 11.9974H134.437L134.731 10.3045L138.779 0.699219H145.809L139.368 14.5367H128.843Z" fill="#0627B0"/>
<path d="M168 10.1941C167.191 13.2118 163.29 15.1623 157.586 15.1623C152.985 15.1623 149.452 13.8374 147.833 11.5189C147.097 10.4517 146.729 9.12684 146.729 7.61796C146.729 6.07229 147.134 4.74742 147.87 3.68017C149.526 1.32486 152.875 0 157.475 0C164.136 0 168 2.76013 168 7.61796V8.68521H153.206C153.317 9.31084 153.501 9.82606 153.795 10.2309C154.457 11.1877 155.745 11.6662 157.586 11.6662C159.573 11.6662 160.75 11.1141 161.413 10.1205H168V10.1941ZM153.685 4.89463C153.464 5.22584 153.28 5.63067 153.169 6.07229H161.523C161.376 4.45301 160.088 3.42256 157.438 3.42256C155.672 3.42256 154.347 3.90098 153.685 4.89463Z" fill="#0627B0"/>
<path d="M14.7575 30.0671V6.69796H13.8375C13.1382 12.5862 10.0469 15.1624 4.15859 15.1624H0V6.73475H3.79058C9.31084 6.73475 12.255 4.48985 12.255 0.588867H24.878V30.0671H14.7575Z" fill="#FB4073"/>
</svg>
